<svg width="25" height="24" viewBox="0 0 25 24" fill="none" xmlns="http://www.w3.org/2000/svg">
<path d="M24.5 12.2737C24.5011 11.4559 24.4305 10.6396 24.2892 9.83374H12.7429V14.4553H19.3561C19.2208 15.1934 18.9343 15.897 18.5141 16.5237C18.0938 17.1504 17.5484 17.6872 16.9108 18.1018V21.1017H20.8576C23.1686 19.0134 24.5 15.9252 24.5 12.2737Z" fill="#4285F4"/>
<path d="M12.7429 23.9999C16.0469 23.9999 18.8289 22.9366 20.8576 21.1033L16.9108 18.1034C15.8123 18.8334 14.3975 19.25 12.7429 19.25C9.54939 19.25 6.83883 17.1401 5.86956 14.2969H1.80371V17.3884C2.82275 19.3758 4.38534 21.0465 6.31702 22.214C8.2487 23.3815 10.4735 23.9998 12.7429 23.9999Z" fill="#34A853"/>
<path d="M5.86955 14.297C5.35713 12.8071 5.35713 11.1937 5.86955 9.70381V6.61224H1.80371C0.946457 8.28411 0.5 10.1293 0.5 12.0004C0.5 13.8715 0.946457 15.7167 1.80371 17.3886L5.86955 14.297Z" fill="#FBBC04"/>
<path d="M12.7429 4.75063C14.4889 4.72267 16.176 5.36924 17.4396 6.55057L20.9341 3.12568C18.7182 1.08588 15.7827 -0.03401 12.7429 0.000787286C10.4735 0.000888658 8.2487 0.619191 6.31702 1.78667C4.38534 2.95414 2.82275 4.62484 1.80371 6.61224L5.86956 9.7038C6.83883 6.86056 9.54939 4.75063 12.7429 4.75063Z" fill="#EA4335"/>
</svg>
