<svg width="339" height="120" viewBox="0 0 339 120" fill="none" xmlns="http://www.w3.org/2000/svg">
<path d="M1 116C1 117.657 2.34315 119 4 119H18.9996C20.6564 119 21.9996 117.657 21.9996 116V41.1873C21.9996 40.2021 23.2741 39.8106 23.8272 40.626L76.0967 117.684C76.655 118.507 77.5849 119 78.5795 119H92.7627C94.4196 119 95.7627 117.657 95.7627 116V4C95.7627 2.34315 94.4196 1 92.7627 1H77.7631C76.1063 1 74.7631 2.34315 74.7631 4.00001V78.507C74.7631 79.4914 73.4906 79.8835 72.9366 79.0699L20.6652 2.3114C20.1065 1.49097 19.1782 1 18.1856 1H4C2.34315 1 1 2.34314 1 4V116ZM116.068 116C116.068 117.657 117.411 119 119.068 119H134.546C136.203 119 137.546 117.657 137.546 116V4C137.546 2.34315 136.203 1 134.546 1H119.068C117.411 1 116.068 2.34314 116.068 4V116ZM157.854 116C157.854 117.657 159.197 119 160.854 119H176.332C177.989 119 179.332 117.657 179.332 116V66.6261C179.332 65.7029 180.477 65.2728 181.085 65.9672L226.637 117.977C227.207 118.627 228.029 119 228.894 119H249.372C251.966 119 253.337 115.929 251.605 113.997L200.56 57.0829C200.217 56.7009 200.219 56.1217 200.565 55.7422L245.8 6.0188C247.553 4.09193 246.186 1 243.581 1H225.686C224.834 1 224.022 1.36239 223.453 1.99672L181.077 49.2348C180.464 49.9176 179.332 49.4843 179.332 48.567V4C179.332 2.34315 177.989 1 176.332 1H160.854C159.197 1 157.854 2.34314 157.854 4V116ZM265.749 116C265.749 117.657 267.093 119 268.749 119H335C336.657 119 338 117.657 338 116V102.845C338 101.188 336.657 99.8451 335 99.8451H287.909C287.356 99.8451 286.909 99.3974 286.909 98.8451V68.6986C286.909 68.1463 287.356 67.6986 287.909 67.6986H328.614C330.27 67.6986 331.614 66.3554 331.614 64.6986V51.5437C331.614 49.8868 330.27 48.5437 328.614 48.5437H287.909C287.356 48.5437 286.909 48.096 286.909 47.5437V21.1549C286.909 20.6026 287.356 20.1549 287.909 20.1549H333.403C335.06 20.1549 336.403 18.8118 336.403 17.1549V4C336.403 2.34315 335.06 1 333.403 1H268.749C267.093 1 265.749 2.34315 265.749 4V116Z" fill="#F2F2F2" stroke="#F2F2F2" stroke-width="2" stroke-linejoin="round"/>
</svg>
